<svg width="42" height="42" viewBox="0 0 42 42" fill="none" xmlns="http://www.w3.org/2000/svg">
<path d="M20.6829 0.61377C9.32902 0.61377 0.114258 9.82853 0.114258 21.1824C0.114258 32.5363 9.32902 41.7511 20.6829 41.7511C32.0368 41.7511 41.2516 32.5363 41.2516 21.1824C41.2516 9.82853 32.0368 0.61377 20.6829 0.61377ZM10.5426 34.0995C11.427 32.2484 16.816 30.4383 20.6829 30.4383C24.5498 30.4383 29.9594 32.2484 30.8233 34.0995C28.0259 36.321 24.5087 37.6374 20.6829 37.6374C16.8571 37.6374 13.3399 36.321 10.5426 34.0995ZM33.7646 31.1171C30.8233 27.5381 23.6859 26.3246 20.6829 26.3246C17.6799 26.3246 10.5426 27.5381 7.60125 31.1171C5.50325 28.3609 4.22799 24.9259 4.22799 21.1824C4.22799 12.1117 11.6121 4.7275 20.6829 4.7275C29.7537 4.7275 37.1378 12.1117 37.1378 21.1824C37.1378 24.9259 35.8626 28.3609 33.7646 31.1171ZM20.6829 8.84123C16.6926 8.84123 13.4839 12.0499 13.4839 16.0403C13.4839 20.0306 16.6926 23.2393 20.6829 23.2393C24.6732 23.2393 27.8819 20.0306 27.8819 16.0403C27.8819 12.0499 24.6732 8.84123 20.6829 8.84123ZM20.6829 19.1256C18.9757 19.1256 17.5976 17.7475 17.5976 16.0403C17.5976 14.3331 18.9757 12.955 20.6829 12.955C22.3901 12.955 23.7682 14.3331 23.7682 16.0403C23.7682 17.7475 22.3901 19.1256 20.6829 19.1256Z" fill="#BDBDBD"/>
</svg>
